<svg width="48" height="48" viewBox="0 0 48 48" fill="none" xmlns="http://www.w3.org/2000/svg">
<rect width="48" height="48" fill="#323238"/>
<g clip-path="url(#clip0_61385_209)">
<path d="M36.5833 40L30.2395 33.9583L31.0008 36.375H15.4375C14.6363 36.375 13.8679 36.0567 13.3014 35.4902C12.7349 34.9237 12.4166 34.1553 12.4166 33.3541V15.2291C12.4166 14.428 12.7349 13.6596 13.3014 13.0931C13.8679 12.5266 14.6363 12.2083 15.4375 12.2083H33.5625C34.3636 12.2083 35.132 12.5266 35.6985 13.0931C36.265 13.6596 36.5833 14.428 36.5833 15.2291V40ZM24.5 19.2166C21.2616 19.2166 18.99 20.6062 18.99 20.6062C20.2345 19.4946 22.4095 18.8541 22.4095 18.8541L22.2041 18.6487C20.162 18.685 18.3133 20.0987 18.3133 20.0987C16.235 24.4366 16.3679 28.1825 16.3679 28.1825C18.0595 30.3696 20.5729 30.2125 20.5729 30.2125L21.4308 29.125C19.9204 28.7987 18.9658 27.4575 18.9658 27.4575C18.9658 27.4575 21.2375 29.0041 24.5 29.0041C27.7625 29.0041 30.0341 27.4575 30.0341 27.4575C30.0341 27.4575 29.0795 28.7987 27.5691 29.125L28.427 30.2125C28.427 30.2125 30.9404 30.3696 32.632 28.1825C32.632 28.1825 32.765 24.4366 30.6866 20.0987C30.6866 20.0987 28.8379 18.685 26.7958 18.6487L26.5904 18.8541C26.5904 18.8541 28.7654 19.4946 30.01 20.6062C30.01 20.6062 27.7383 19.2166 24.5 19.2166V19.2166ZM21.9987 23.7962C22.7841 23.7962 23.4245 24.485 23.4125 25.3308C23.4125 26.1646 22.7841 26.8654 21.9987 26.8654C21.2254 26.8654 20.597 26.1646 20.597 25.3308C20.597 24.485 21.2133 23.7962 21.9987 23.7962ZM27.0375 23.7962C27.8229 23.7962 28.4512 24.485 28.4512 25.3308C28.4512 26.1646 27.8229 26.8654 27.0375 26.8654C26.2641 26.8654 25.6358 26.1646 25.6358 25.3308C25.6358 24.485 26.252 23.7962 27.0375 23.7962Z" fill="white"/>
</g>
<defs>
<clipPath id="clip0_61385_209">
<rect width="29" height="29" fill="white" transform="translate(10 11)"/>
</clipPath>
</defs>
</svg>
